<svg width="160" height="160" viewBox="0 0 160 160" fill="none" xmlns="http://www.w3.org/2000/svg">
<path d="M63.1795 70.2887L80 60.5774L96.8205 70.2887V89.7113L80 99.4226L63.1795 89.7113V70.2887Z" stroke="black"/>
<path d="M45.859 60.2887L80 40.5774L114.141 60.2887V99.7113L80 119.423L45.859 99.7113V60.2887Z" stroke="black"/>
<path d="M28.5385 50.2887L80 20.5774L131.462 50.2887V109.711L80 139.423L28.5385 109.711V50.2887Z" stroke="black"/>
<path d="M73.5718 76.2887L80 72.5774L86.4282 76.2887V83.7113L80 87.4226L73.5718 83.7113V76.2887Z" stroke="black"/>
<path d="M11.218 40.2887L80 0.57735L148.782 40.2887V119.711L80 159.423L11.218 119.711V40.2887Z" stroke="black"/>
</svg>
